HIERARCHY
ROOT Hips
{
	OFFSET 0.000000 0.000000 0.000000
	CHANNELS 6 Xposition Yposition Zposition Zrotation Yrotation Xrotation 
	JOINT LHipJoint
	{
		OFFSET 0.000000 0.000000 0.000000
		CHANNELS 3 Zrotation Yrotation Xrotation
		JOINT LeftUpLeg
		{
			OFFSET 1.363060 -1.794630 0.839290
			CHANNELS 3 Zrotation Yrotation Xrotation
			JOINT LeftLeg
			{
				OFFSET 2.448110 -6.726130 0.000000
				CHANNELS 3 Zrotation Yrotation Xrotation
				JOINT LeftFoot
				{
					OFFSET 2.562200 -7.039590 0.000000
					CHANNELS 3 Zrotation Yrotation Xrotation
					JOINT LeftToeBase
					{
						OFFSET 0.157640 -0.433110 2.322550
						CHANNELS 3 Zrotation Yrotation Xrotation
						End Site
						{
							OFFSET 0.000000 0.000000 0.000000
						}
					}
				}
			}
		}
	}
	JOINT RHipJoint
	{
		OFFSET 0.000000 0.000000 0.000000
		CHANNELS 3 Zrotation Yrotation Xrotation
		JOINT RightUpLeg
		{
			OFFSET -1.305520 -1.794630 0.839290
			CHANNELS 3 Zrotation Yrotation Xrotation
			JOINT RightLeg
			{
				OFFSET -2.542530 -6.985550 0.000000
				CHANNELS 3 Zrotation Yrotation Xrotation
				JOINT RightFoot
				{
					OFFSET -2.568260 -7.056230 0.000000
					CHANNELS 3 Zrotation Yrotation Xrotation
					JOINT RightToeBase
					{
						OFFSET -0.164730 -0.452590 2.363150
						CHANNELS 3 Zrotation Yrotation Xrotation
						End Site
						{
							OFFSET 0.000000 0.000000 0.000000
						}
					}
				}
			}
		}
	}
	JOINT LowerBack
	{
		OFFSET 0.000000 0.000000 0.000000
		CHANNELS 3 Zrotation Yrotation Xrotation
		JOINT Spine
		{
			OFFSET 0.028270 2.035590 -0.193380
			CHANNELS 3 Zrotation Yrotation Xrotation
			JOINT Spine1
			{
				OFFSET 0.056720 2.048850 -0.042750
				CHANNELS 3 Zrotation Yrotation Xrotation
				JOINT Neck
				{
					OFFSET 0.000000 0.000000 0.000000
					CHANNELS 3 Zrotation Yrotation Xrotation
					JOINT Neck1
					{
						OFFSET -0.054170 1.746240 0.172020
						CHANNELS 3 Zrotation Yrotation Xrotation
						JOINT Head
						{
							OFFSET 0.104070 1.761360 -0.123970
							CHANNELS 3 Zrotation Yrotation Xrotation
							End Site
							{
								OFFSET 0.000000 0.000000 0.000000
							}
						}
					}
				}
				JOINT LeftShoulder
				{
					OFFSET 0.000000 0.000000 0.000000
					CHANNELS 3 Zrotation Yrotation Xrotation
					JOINT LeftArm
					{
						OFFSET 3.362410 1.200890 -0.311210
						CHANNELS 3 Zrotation Yrotation Xrotation
						JOINT LeftForeArm
						{
							OFFSET 4.983000 -0.000000 -0.000000
							CHANNELS 3 Zrotation Yrotation Xrotation
							JOINT LeftHand
							{
								OFFSET 3.483560 -0.000000 -0.000000
								CHANNELS 3 Zrotation Yrotation Xrotation
								JOINT LeftFingerBase
								{
									OFFSET 0.000000 0.000000 0.000000
									CHANNELS 3 Zrotation Yrotation Xrotation
									JOINT LeftHandIndex1
									{
										OFFSET 0.715260 -0.000000 -0.000000
										CHANNELS 3 Zrotation Yrotation Xrotation
										End Site
										{
											OFFSET 0.000000 0.000000 0.000000
										}
									}
								}
								JOINT LThumb
								{
									OFFSET 0.000000 0.000000 0.000000
									CHANNELS 3 Zrotation Yrotation Xrotation
									End Site
									{
										OFFSET 0.000000 0.000000 0.000000
									}
								}
							}
						}
					}
				}
				JOINT RightShoulder
				{
					OFFSET 0.000000 0.000000 0.000000
					CHANNELS 3 Zrotation Yrotation Xrotation
					JOINT RightArm
					{
						OFFSET -3.136600 1.374050 -0.404650
						CHANNELS 3 Zrotation Yrotation Xrotation
						JOINT RightForeArm
						{
							OFFSET -5.241900 -0.000000 -0.000000
							CHANNELS 3 Zrotation Yrotation Xrotation
							JOINT RightHand
							{
								OFFSET -3.444170 -0.000000 -0.000000
								CHANNELS 3 Zrotation Yrotation Xrotation
								JOINT RightFingerBase
								{
									OFFSET 0.000000 0.000000 0.000000
									CHANNELS 3 Zrotation Yrotation Xrotation
									JOINT RightHandIndex1
									{
										OFFSET -0.622530 -0.000000 -0.000000
										CHANNELS 3 Zrotation Yrotation Xrotation
										End Site
										{
											OFFSET 0.000000 0.000000 0.000000
										}
									}
								}
								JOINT RThumb
								{
									OFFSET 0.000000 0.000000 0.000000
									CHANNELS 3 Zrotation Yrotation Xrotation
									End Site
									{
										OFFSET 0.000000 0.000000 0.000000
									}
								}
							}
						}
					}
				}
			}
		}
	}
}
MOTION
Frames: 4
Frame Time: 0.008333
0.694940 17.555900 -0.192996 -179.451981 9.421930 -174.346962 -2.798695 19.369865 6.566230 -14.529366 -4.880105 -11.191980 0.086784 -0.103630 16.310474 21.225709 -5.299021 -8.990798 -4.558371 1.790280 -6.832308 -2.300185 -19.946062 -3.463885 22.180316 -0.230830 -6.639170 2.939181 -4.025689 24.915256 -22.708424 10.191402 -11.059971 10.075811 -25.375524 -9.474599 3.692740 3.722475 2.030728 11.291163 3.229049 16.655352 -16.440871 -11.439371 -26.154733 -7.419200 8.042239 -15.727848 8.127295 7.613965 3.382507 -0.372478 0.718724 -12.492403 10.274214 25.615408 4.170588 -10.119498 -4.734074 16.761688 3.579614 -27.760357 -0.796631 3.438362 11.314224 -1.056304 3.143079 13.048513 0.000000 0.000000 0.000000 0.000000 0.000000 0.000000 0.000000 -21.502660 -41.058994 -9.504274 50.167905 30.963501 23.405545 -4.720435 7.199070 13.097514 0.058931 0.197456 3.695603 0.811432 -8.819508 -0.000000 0.000000 0.000000 0.000000 0.000000 0.000000 0.000000 
0.694608 17.555300 -0.194032 -179.455266 9.412185 -174.347571 -2.800485 19.371787 6.567167 -14.531244 -4.885323 -11.196321 0.090090 -0.104049 16.327021 21.231842 -5.303523 -9.003251 -4.556061 1.789786 -6.830014 -2.299507 -19.936510 -3.468710 22.182634 -0.221417 -6.635612 2.922551 -4.038023 24.926865 -22.666660 10.165429 -11.069319 10.101199 -25.362920 -9.485906 3.697863 3.714988 2.033657 11.292508 3.221120 16.667829 -16.440305 -11.446810 -26.157374 -7.421976 8.020966 -15.725602 8.112946 7.594279 3.400073 -0.376161 0.723348 -12.482571 10.271140 25.616939 4.162307 -10.139911 -4.760154 16.771795 3.574401 -27.767131 -0.800272 3.442906 11.298839 -1.059835 3.148194 13.045228 0.000000 0.000000 0.000000 0.000000 0.000000 0.000000 0.000000 -21.493332 -41.055746 -9.499631 50.153083 30.994187 23.424504 -4.735000 7.220387 13.125146 0.008834 0.246505 3.747220 0.767976 -8.809384 -0.000000 0.000000 0.000000 0.000000 0.000000 0.000000 0.000000 
0.694260 17.554700 -0.194946 -179.460858 9.398916 -174.347132 -2.802516 19.377539 6.568162 -14.535918 -4.890019 -11.202550 0.093784 -0.107872 16.342706 21.236354 -5.313946 -9.016956 -4.557946 1.789216 -6.835892 -2.297782 -19.922783 -3.475518 22.178757 -0.214568 -6.631531 2.910114 -4.051202 24.934401 -22.646270 10.141085 -11.088795 10.108345 -25.355096 -9.482976 3.704479 3.703060 2.039925 11.285311 3.209367 16.679164 -16.436946 -11.451831 -26.165672 -7.422687 8.000194 -15.721192 8.099478 7.574871 3.409620 -0.379950 0.726715 -12.476999 10.272528 25.618302 4.159371 -10.163061 -4.776228 16.780325 3.573452 -27.777098 -0.793441 3.438603 11.298354 -1.060620 3.143314 13.042575 0.000000 0.000000 0.000000 0.000000 0.000000 0.000000 0.000000 -21.488890 -41.048249 -9.508901 50.150030 31.008998 23.412625 -4.730299 7.227803 13.108530 0.020920 0.227357 3.730175 0.777843 -8.812135 -0.000000 0.000000 0.000000 0.000000 0.000000 0.000000 0.000000 
0.693885 17.554100 -0.195891 -179.464594 9.379213 -174.347055 -2.804317 19.383236 6.568555 -14.537720 -4.888644 -11.206439 0.092192 -0.112554 16.350035 21.249457 -5.330382 -9.025968 -4.555351 1.786435 -6.836808 -2.296780 -19.914041 -3.480982 22.178352 -0.209860 -6.626895 2.896138 -4.064637 24.942765 -22.617197 10.114811 -11.100619 10.129111 -25.346916 -9.499703 3.710312 3.695543 2.045280 11.284949 3.202269 16.687277 -16.444353 -11.460739 -26.165149 -7.420234 7.978990 -15.716608 8.089834 7.554207 3.417103 -0.383275 0.725708 -12.472023 10.268608 25.627596 4.153834 -10.168554 -4.826929 16.813309 3.570273 -27.781512 -0.777846 3.433286 11.264227 -1.052950 3.135370 13.033949 0.000000 0.000000 0.000000 0.000000 0.000000 0.000000 0.000000 -21.492772 -41.047071 -9.507929 50.155959 31.009748 23.409362 -4.728601 7.229491 13.118103 0.024425 0.232560 3.732638 0.781494 -8.810988 -0.000000 0.000000 0.000000 0.000000 0.000000 0.000000 0.000000 
